<?xml version="1.0" encoding="utf-8"?>
<!-- Generator: Adobe Illustrator 26.1.0, SVG Export Plug-In . SVG Version: 6.00 Build 0)  -->
<svg version="1.1" id="Layer_2_00000062900167416737316200000012164454798343969967_"
	 xmlns="http://www.w3.org/2000/svg" xmlns:xlink="http://www.w3.org/1999/xlink" x="0px" y="0px" viewBox="0 0 174.6 200.3"
	 style="enable-background:new 0 0 174.6 200.3;" xml:space="preserve">
<style type="text/css">
	.st0{fill:#FFFFFF;}
	.st1{display:none;}
	.st2{display:inline;fill:#FFFFFF;}
	.st3{display:none;fill:#FFFFFF;stroke:#FFFFFF;stroke-width:1.44;stroke-miterlimit:10;}
</style>
<path class="st0" d="M173.3,115.2l-0.3-0.5c-0.1-0.1-6.9-10.3-9.9-14.7c-0.2-0.3-0.4-0.7-0.4-1c-0.7-3.8-1.4-7.6-2.1-11.4
	c-0.8-4.6-1.7-9.2-2.6-13.8c-0.2-1.1-0.6-2.1-1.2-3c-4.7-7.3-14.5-22.8-14.6-23l-0.4-0.6L121,38.2l-5.2-5.7l-11.1-3.6L91.4,7.7
	L71.6,0L59.9,32.7L29.8,49.3l-5.3,19.4l-9.8,8.1l-0.1,0.9c0,0-0.9,13.4-1.3,19.7c-0.1,1.6-0.3,4.2-0.4,6.1l-6.6-0.8L0,127.5l5,33.6
	l11.8,5.4l46.8,30l20.4,3.9l32.6-4.6l29.1-7.6l15.2-27.8l13.7-2.1L173.3,115.2z M73,193.8c-2.8-0.6-5.3-1.1-6.4-1.3l-2-35.2l3.1-3.9
	c1.9,5.6,10,28.9,14.4,42.1L73,193.8z M42.7,178c-7.8-5-16.2-10.5-22.5-14.6c1.1-0.3,2.2-0.7,3.2-1c4.5-1.3,13.7-3.9,15.6-4.5
	l13.8,9.6l8.9,22.5L42.7,178z M112,35.8l-2.7,10.6l-17.6-5.6c2.3-1.6,7.5-5.2,11.4-7.8c1.3,0.4,5.8,1.8,8.7,2.7L112,35.8z
	 M85.1,195.8l-2.7-49.2h22l-3.8,30l1.7-2.3c0,0,10.1-14.2,15.5-21.8c1.7,1.4,4.2,3.4,5.1,4.2l-9.1,35.1L85.1,195.8z M169,116.7
	l0.9,32.2l-4-10.5l-4.1-32.3L169,116.7z M143.7,182.4c-1-2.3-3.2-7.2-4.3-9.9c-1.5-3.7-4.7-11.4-5.2-12.7l2.5-14.8l17.2,1l3.2,11.7
	L143.7,182.4z M130.5,187.5c-3.9,1-7.9,2.1-11.9,3.2c3.3-6.5,6.6-13,9.9-19.5l4.3-8.5c1.5,3.5,3,7.1,4.4,10.6
	c1.6,3.7,3.1,7.4,4.6,11.1C138.1,185.5,134.2,186.6,130.5,187.5z M9.8,158c1.6-6.4,3.8-15.2,4.6-18.1c3.4,2.7,9,6.9,10.7,8.3
	L16.2,161L9.8,158z M41.4,48c6.7-3.7,13.5-7.4,20.2-11.1c0.8-0.4,1.4-0.5,2.3-0.3c4.6,1.2,9.3,2.5,13.9,3.6c1.8,0.5,3.5,0.9,5.3,1.4
	c-13.2,4.7-26.5,9.3-39.7,13.9c-0.4,0.1-0.6,0.1-0.6,0.1c-2.2-1.2-4.4-2.5-6.7-3.9l-0.7-0.4L41.4,48z M100.6,31l-3.2,2.2
	c-2.8,1.9-5.5,3.8-8.3,5.7c-0.6-3.1-2.2-12.3-3.4-18.9l3.5-7.1L100.6,31z M118.9,42.2l19.5,8.6l11.1,17l-18.3-11.5
	c-0.1-0.1-12-5.6-17.9-8.2c-0.1-0.1-0.2-0.1-0.3-0.2C114.3,46.7,116.9,44.2,118.9,42.2z M130.6,160.7c-1.6,3.1-3.6,7.1-5.6,11.1
	c-2.2,4.3-4.5,8.9-6.2,12.3c1.6-6.5,3.4-13.3,5-19.9l1.5-6L130.6,160.7z M115.3,151.2l-10.7,15.7l2.6-19.6L115.3,151.2z M46.1,137.4
	L37.9,155l-17.3,5.1l7.7-11.1L46.1,137.4z M86.1,39.4l-0.5-0.1c-7-1.8-14-3.6-21-5.4c2.1-6,4.2-12,6.2-17.9l3-8.5
	c1.7,2.5,5.9,8.6,8.8,13c0.3,1.5,2.5,13.3,3.5,18.9C86.1,39.3,86.1,39.3,86.1,39.4z M105.8,139.9l-0.6,3.4c-1.7,0-6.5,0.1-8.8,0.2
	c-0.1-1.5-0.2-3.5-0.3-4.3l3.6-2.6L105.8,139.9z M93.1,138.7c0.1,1,0.2,3.2,0.3,4.6h-2.7c0-2,0.1-5.6,0.1-5.6l0-0.5l-11.1-3.3
	c0.5-1.1,1.3-3,2-4.3c2.6,1.2,9.1,3.9,9.4,4l0.3,0.1l0.3-0.1c0.1,0,5.7-2.7,8.5-3.8c1.1,1.7,2.6,4,3.6,5.6l-4.1-2.3l-6.7,4.7v0.4
	C93,138.1,93,138.3,93.1,138.7z M76.9,136.4c0.5,2,1.8,7.8,2.5,11.1l-9.6,1.9c-0.4-1.9-0.8-3.8-1.2-5.6c-0.4-1.9-0.9-3.8-1.2-5.7
	C69.8,137.6,75.1,136.7,76.9,136.4z M54.2,153.8l-2.5-6.3c0.6-0.2,1.4-0.6,2.1-0.9l3.6,6.7L54.2,153.8z M27.6,92.4
	c1.8-2.1,4.2-4.8,5.7-6.5l-0.8,6.5C31.6,92.4,29.5,92.4,27.6,92.4z M161.9,138.5C161.9,138.5,161.9,138.5,161.9,138.5
	c-2,1.1-3.8,2.2-5.7,3.2l-1.7,1l-0.2,0.1c-0.1,0.1-0.2,0.1-0.2,0.1c-2.2,0-4.5-0.1-6.9-0.2l-0.4,0c1.9-4.2,3.8-8.2,5.8-12.4
	C155.8,133.1,158.8,135.8,161.9,138.5z M108.8,137.4c-0.1-2.7-0.3-6.6-0.4-8.1l10-0.9l10.6,1.4c1.2,1.2,8.3,8.6,12.1,12.7
	c-1.5-0.1-3.7-0.3-5.2-0.4l-7.8-4.3l-2.3,5.7l-6.4-2.7l-3.3-5.6l-0.5,0.2C115.6,135.4,111.3,136.6,108.8,137.4z M105.7,133.8
	c-0.8-1.4-1.9-3.1-2.8-4.4c1.2,0,2,0,2.6,0L105.7,133.8z M123.9,108.5l11,7.8l0.9,5.6l-6.4,4.8l-9.7-1l-7.9-10.4L123.9,108.5z
	 M137.5,124.1c0,0,0.2,0,0.2,0c3.7,1.5,7.4,2.9,11.1,4.4l1.3,0.5c-1.9,4.1-3.8,8.2-5.8,12.5c-2.3-2.4-4.5-4.9-6.8-7.3l-5.5-5.9
	C133.9,126.8,135.7,125.5,137.5,124.1z M77.4,109.7c-1.8,0.7-3.5,1.4-5.3,2.1c-0.7-3.3-1.7-8.1-2.3-11.1
	C71.8,103,75.2,107,77.4,109.7z M69.2,113.8c-2.1,2.7-7.4,9-8.5,10.4L46,123.8l-3.8-7.3l3.2-5.5l11.8-4.9
	C61.5,108.8,67.4,112.6,69.2,113.8z M40.8,112.6c0,0,0.1,0,0.1-0.1c-0.2,0.4-0.4,0.8-0.6,1.1l-0.1,0.2l-0.6-0.7
	C40,113,40.4,112.8,40.8,112.6z M105.3,116.6c-0.3-0.4-1.3-1.8-2.2-3.1c1.5,0.5,3.5,1.3,5.4,2l4.3,5.8L105.3,116.6z M114.6,125.7
	c-1.7,0.2-4.1,0.4-6,0.5c0.3-1.2,0.8-2.7,1-3.7L114.6,125.7z M46.2,127l14.3,0.3l1.4,1.4l-24.5,5.1C39.8,132,43.4,129.2,46.2,127z
	 M63.6,125.9c1.3-1.7,5.7-7.1,8.8-11c0.5-0.2,2.1-0.9,3.6-1.5c-2.3,3.6-5.6,8.6-6,9.1l-4.7,4.8C64.7,127,64.1,126.4,63.6,125.9z
	 M78.4,129.4c-0.8,1.5-1.6,3.2-1.9,4l-6.7,1.2l5.4-4.9c0.1,0,0.2,0,0.3,0C76.2,129.6,77.4,129.5,78.4,129.4z M80.2,112.1
	c0.1-0.1,0.4-0.2,0.5-0.2c5.3,0.1,15.9,0.4,17.9,0.5l4.4,6.1l4,2.6l-1.4,5.2l-5.5,0.3l-8.8,3.9c-2.5-1.1-9.2-4-10-4.2c0,0,0,0-0.1,0
	c-0.3,0-1.3,0.1-5.5,0.4l-2.7-3.2C74,121.8,78.1,115.5,80.2,112.1z M139,121.4C139,121.4,138.9,121.4,139,121.4
	C138.9,121.4,138.9,121.4,139,121.4c-0.3-0.9-0.5-2.3-0.7-3.5l7.8,6.4C143.7,123.3,140.8,122.2,139,121.4z M136.2,113.4l-10.5-7.5
	l-1.8-25.4l10.8-6l14.1,22.1L136.2,113.4z M109.6,112.7c-1.1-0.4-5-1.6-7.6-2.5c5.8-8.1,15.7-21.9,19.1-26.6l1.5,21.9L109.6,112.7z
	 M36.3,113.5l3,3.7l4,7.9c-1.5,1.2-6.5,5.4-9.9,8.1l-3.9-23.8L36.3,113.5z M108.8,140.4l6.1-1.9l2.1,3.7l-0.7,6.1l-8.1-4.1
	L108.8,140.4z M138.5,114.7c3.2-4.2,8.5-11.1,10.8-14.1c0.2,4.6,0.8,16.4,1.3,24L138.5,114.7z M121,78.6l-22.2,30.8l-18.1-0.5
	L65.2,90.9l3,18.4l-10.7-6.7l-19.9,8.1c-1.2-0.7-5.8-3.2-8.2-4.7c2-3.9,5.8-11.7,5.8-11.8l1.2-12l7.7-23.6L88.1,43l21.6,6.7
	l19.4,9.3l4.3,12.7L121,78.6z M19.6,108.3c2.2-0.1,4.4-0.3,6.7-0.4c1,6.1,2.7,16.1,3.7,21.7c-2.9-5.3-8.2-15-11.6-21.2L19.6,108.3z
	 M33.7,137.8l9.9-2.2l-13.4,9L33.7,137.8z M65.7,131l0.1-0.1c0,0,3.3-3.3,5.1-5.2l2.1,2.5l-6.8,6.3l-0.3-0.9l-11.9,3l-1.2,7.3
	l-4.8,2.2l3.4,9.5l0.6,7.8l-11.3-8l0.9-1.9c0.7-1.5,1.4-3,2.1-4.5c2-4.2,5.9-12.7,6.7-14.4L65.7,131z M119.7,143.9l5.3,2.3
	c-0.2,1.3-0.7,4.9-1,7.5c-1.8-1.4-4.1-3.2-5-3.8L119.7,143.9z M126.7,155.6l1.4-9.6c0.2-0.4,1-2.4,1.7-4.1c1.3,0.8,3.1,1.9,3.9,2.4
	l-2.1,13.5L126.7,155.6z M21.4,101.1c1-1.5,3.2-4.7,3.9-5.7c1.1,0,4.2-0.1,6.4-0.1c-0.6,1.2-1.7,3.3-2.6,5.1
	c-0.8,1.6-1.6,3.1-2.2,4.2c0,0.1-0.2,0.2-0.3,0.3c-2.3,0.2-4.6,0.3-7.1,0.5l-1.1,0.1c1-1.4,1.9-2.8,2.7-4.1L21.4,101.1z M56.6,138.8
	l7.4-1.9c0.5,2.3,2.3,9.4,2.9,13c-0.4,0.6-2.2,2.7-4,4.7l-2.3-1.5c-0.5-1-3.3-6.1-4.5-8.4c-0.1-0.2-0.2-0.4-0.2-0.6c0,0,0,0,0-0.1
	C56,142.6,56.4,139.9,56.6,138.8z M154,127.3c-0.2-2.8-1.6-24.1-1.9-28.6c2.2,0.9,5.3,2.3,6.3,2.8c0.3,2.7,2.1,17.8,3,25.5
	c0.3,2.1,0.7,5.7,1,8L154,127.3z M149.8,92.6c-3.1-4.9-12.2-19.3-12.9-20.5l-3.9-11l19.6,12.1C151.4,81.9,150.4,88.7,149.8,92.6z
	 M86.9,10.8l-2.9,6c-2.1-3-5.2-7.4-6.9-9.9L86.9,10.8z M33.1,53.5c2.2,1.3,6.4,3.9,7.8,4.7c-1.6,5.2-5.1,16.2-6.3,20
	c-1.6-2.3-5.1-7.1-5.9-8.3C29.3,68,31.8,58.6,33.1,53.5z M16.4,115.9L16.4,115.9c0.1-1.1,0.2-2.9,0.3-4.3l5.3,9.7
	c2.5,4.6,7.6,13.9,8.6,15.8c-0.6,1.3-2.8,5.8-4.1,8.5c-2.5-1.9-9.6-7.4-11.1-8.6C15.4,134.6,16,122.1,16.4,115.9z M87.7,139.4
	c0,0.9,0,2.9,0,4.2c-1.9,0-4.8,0-6-0.1l-1.3-6L87.7,139.4z M156.8,145c1.3-0.8,4.9-2.9,7.3-4.2l5.3,13.8c-1.8,0.2-3.5,0.5-5.2,0.7
	l-4.4,0.6c0,0,0,0,0-0.1C158.9,152.8,157.3,146.8,156.8,145z M33.5,81.2c-3,3.3-9.8,11.4-9.9,11.6l-6.2,9.2c0-0.5,0.1-1,0.1-1.3v0
	c0.5-7.1,0.9-14.1,1.4-21.2c0-0.5,0.2-0.7,0.2-0.8c2-1.7,4.1-3.4,6.2-5.1l1.8-1.5c1.3,1.9,2.6,3.7,3.9,5.6L33.5,81.2z M59.4,156.1
	l2,1.3l1.5,28.2l-7.6-19.2c-0.1-0.9-0.6-7.1-0.9-9.7C56.2,156.5,58.7,156.2,59.4,156.1z M75.9,151.2c1.3-0.2,2.6-0.5,4-0.8
	c0.4,7,0.9,14.2,1.3,21.3c0.4,5.4,0.7,10.9,1,16.2c-0.7-2.3-1.7-5.1-2.6-8.1c-2.9-9-6.5-20.1-9.1-27.6
	C72.4,151.9,74.1,151.5,75.9,151.2z M158,97.9l-0.1-0.1c-1.9-0.8-3.7-1.6-5.4-2.3c0,0-0.1-0.1-0.1-0.1c0,0,0,0,0,0
	c0.6-3.9,1.7-10.7,2.4-15.1C155.6,85,157,92.7,158,97.9z M115.2,38.7c0.4,0.6,0.9,1.1,1.3,1.6c-1,0.9-1.9,1.8-2.8,2.6
	c-0.2,0.2-0.5,0.4-0.7,0.6c0.1-0.6,0.3-1.3,0.4-2c0.3-1.3,0.6-2.6,0.9-4C114.6,37.9,114.9,38.3,115.2,38.7z M13.9,108
	c-0.1,1.3-0.2,4-0.3,5.5l-0.3,5.2c-0.4,6.1-0.7,12.2-1.1,18.3c-0.1,0.8-2.6,10.1-4,15.1c-0.6-3.8-1.2-7.5-1.8-11.2
	c-0.5-3.4-1.6-10.5-2-12.7l-0.1-0.5l5.2-20.2l0.4,0L13.9,108z"/>
<g class="st1">
	<path class="st2" d="M186.2,51.8v0.3v17.1c-1-2.6-2-4.5-3-5.7h-19.3v9.6c6.9,2.5,11.5,3.7,14.1,3.7c4.5,0,7.2-1,8.2-3
		c-2.4,9.1-8.1,13.2-17.1,12.6c-1.8-0.2-3.5-0.6-5.2-1.1v58.1h19.3c1.9-2.4,2.9-4.2,3-5.7v17.4h-39.6c2.6-1,4.5-2,5.7-3V79.8
		c-1.8-0.8-3.3-1.1-4.5-0.8c2-2.6,3.5-4.3,4.5-4.9V54.7c-2.3-1.9-4.2-2.9-5.7-3L186.2,51.8L186.2,51.8z"/>
	<path class="st2" d="M284.9,189.5c-3.3,0.2-6.7,0-10.2-0.6c-4.7-0.7-9.2-2.7-13.5-6.2c-5-3.9-9.1-9-12.3-15.5
		c-3.2-6.5-5.9-14.2-8-23.1c-0.9-6.3-3.1-16.3-6.5-30c-3.6-10.8-8.4-18.8-14.4-23.8c7.3-4.2,11-10.8,11-19.7
		c-0.1-3.4-0.9-6.4-2.4-9.1c-2.2-3.6-5.5-6.2-10.2-7.9c-4-1.4-8.3-2.1-13-2l-19.3,0.3c1.3,0,3.2,1,5.6,3v29.7
		c-7.3,1.9-12.2,5.6-14.5,11.2c3.7-4.1,8.5-6.2,14.5-6.5v62.9c-1.1,1-3,2-5.6,3h23c-1.4,0-3.3-0.9-5.7-2.8V94.2h2
		c1.3,0,2.7-0.1,4.1-0.3c5.7,3.9,10.1,11.7,13.2,23.6c0.8,3.2,1.8,8.1,2.9,14.7s2,11.6,2.9,15c2.5,9.5,6.2,18.1,11.1,25.7
		c4.4,7.1,10.2,12.4,17.3,16.1c6.3,3.2,12.1,4.5,17.5,4c3.9-0.5,7.3-1.3,10.4-2.6c2.3-0.9,3.5-1.3,3.5-1.4
		C288.5,189.2,287.2,189.3,284.9,189.5z M215.5,79.2c-2.4,2.1-5.7,3.1-9.9,3.1h-2V63.7h2c4.8,0,8.4,0.8,10.7,2.3
		c2,1.1,2.9,2.7,2.8,4.8C219.1,74.3,217.9,77.1,215.5,79.2z"/>
	<path class="st2" d="M-202.3,63.5v9.6c6.9,2.5,11.5,3.7,14.1,3.7c4.5,0,7.2-1,8.2-3c-2.4,9.1-8.1,13.2-17.1,12.6
		c-1.8-0.2-3.5-0.6-5.1-1.1v58.1h19.3c1.9-2.4,2.9-4.2,3-5.7v17.4h-39.6c2.6-1,4.5-2,5.6-3V79.8c-1.8-0.8-3.3-1.1-4.5-0.8
		c2-2.6,3.5-4.3,4.5-4.9V54.7c-2.4-1.9-4.2-2.9-5.6-3h39.6v17.4c-1-2.6-2-4.5-3-5.7C-183,63.5-202.3,63.5-202.3,63.5z"/>
	<path class="st2" d="M1.1,63.5v88.7c2.3,1.9,4.2,2.9,5.6,3h-23c2.6-1,4.5-2,5.6-3V63.5h-19.3c-2,2.4-3,4.2-3,5.7V51.8h56.3v17.4
		c-1-2.6-2-4.5-3-5.7C20.4,63.5,1.1,63.5,1.1,63.5z"/>
	<path class="st2" d="M-96.5,96.7c-3.7-6-8.8-10.7-15.3-14c3.7-3.5,5.5-7.5,5.5-12c0-4-0.8-7.3-2.3-10c-1.1-2.2-2.7-3.9-4.8-5.2
		c-2.5-1.6-5.5-2.7-9-3.2c-2.6-0.4-5.7-0.5-9.3-0.4l-19.3,0.3c1.4,0,3.3,1,5.6,3v97.2c-1.1,1-3,2-5.6,3l10.7,0.3h11.3
		c10.5,0,19.5-3.8,26.9-11.4c7.4-7.6,11.1-16.7,11.1-27.2C-91,109.5-92.8,102.8-96.5,96.7z M-133.7,63.7h2c5.8,0,9.5,0.4,11.1,1.3
		c0.8,0.5,1.5,1.1,1.8,2c0.4,0.8,0.6,2.1,0.6,3.8c0,0.6-0.2,1.2-0.6,1.8c-2.2,3.5-6.5,5.2-13,5.2h-2V63.7z M-110.4,135.7
		c-5.1,5.2-11.3,7.9-18.6,7.9h-4.6V89.7h2c7.8,0,14.6,2.5,20.3,7.6c5.7,5.1,8.6,11.6,8.6,19.5C-102.8,124.2-105.3,130.5-110.4,135.7
		z"/>
	<path class="st2" d="M140.7,54.7v20.8c1.5-0.6,2.5-1.1,3-1.7c-1.3,2.3-2.3,3.8-3,4.7v73.7c2.3,2,4.2,3,5.5,3h-22.8
		c2.5-1,4.4-2,5.5-3V85.9c-3.1,0.8-6.5,0.9-10.2,0.6c-4.8-0.5-9.3-1.3-13.4-2.6v68.3c2.3,2,4.2,3,5.6,3H88c1.3-0.5,2.4-1,3.3-1.5
		c-0.1-1-0.5-2.4-1.2-4.3c-6.9,3.9-14.1,5.8-21.7,5.8c-13.5,0-24.7-5.3-33.8-16c-8.7-10.1-13.1-22-13.1-35.8
		c0-13.7,4.4-25.6,13.1-35.6c9.1-10.7,20.4-16,33.8-16c7.7,0,15,2,21.8,5.9c0.8-2,1.1-3.4,1.1-4.2v22.3c0-1.1-0.7-2.6-2-4.5
		c-6.3-5.3-13.3-7.9-21-7.9c-10.2,0-18.8,4.2-25.7,12.6c-6.5,7.8-9.7,17-9.7,27.4c0,10.6,3.2,19.8,9.7,27.6
		c6.9,8.4,15.4,12.6,25.7,12.6c7.7,0,14.7-2.6,21-7.9c1.3-1.9,2-3.4,2-4.5v22.5c0.9-0.5,1.7-1,2.3-1.4V79.5c-2-0.7-3.8-0.8-5.4-0.6
		c2.3-2.3,4-3.9,5.4-4.5V54.7c-2.4-1.9-4.2-2.9-5.7-3h23c-2.6,0.9-4.5,1.9-5.6,3v17.5c2.6,0.1,5.4,0.6,8.3,1.6
		c5.5,1.6,10.5,2.5,15.2,2.8V54.7c-2.3-1.9-4.2-2.9-5.5-3h22.8C143.6,52.7,141.8,53.7,140.7,54.7z"/>
	<path class="st2" d="M-237.4,152.2V85.9c-3.1,0.8-6.5,0.9-10.1,0.6c-4.8-0.5-9.3-1.3-13.4-2.6v68.3c2.4,2,4.2,3,5.6,3h-23
		c2.6-1,4.5-2,5.6-3V79.5c-2-0.7-3.8-0.8-5.4-0.6c2.2-2.3,4-3.9,5.4-4.5V54.7c-1.5-1.2-2.7-1.9-3.8-2.4v16.9c-1-2.6-2-4.5-3-5.7
		h-19.3c0,0,0.1,16.1,0.1,34.1l0,0.1c0,0,0,4.4,0,10.5c0,0.9,0,1.8,0,2.7c0,0.3,0,0.7,0,1c-0.1,10.7-0.6,24.5-2,30.2
		c-1.7,11.7-6.4,23.5-11.3,31.1c-4.4,7.1-10.2,12.4-17.4,16.1c-6.3,3.2-12.1,4.5-17.5,3.9c-3.9-0.5-7.3-1.3-10.4-2.5
		c-2.4-0.9-3.5-1.3-3.5-1.4c0.1,0.1,1.3,0.2,3.7,0.4c3.3,0.2,6.7,0,10.2-0.6c4.7-0.7,9.2-2.7,13.6-6.2c5-3.9,9.1-9,12.3-15.5
		c5.2-10.5,10.4-19.8,10.8-62.8c0-19.1-0.1-41.1-0.1-41.1h-19.3c-2,2.4-3,4.2-3,5.7V51.8h54.4h1.8h21.1c-2.6,0.9-4.5,1.9-5.6,3v17.5
		c2.6,0.1,5.4,0.6,8.3,1.6c5.5,1.6,10.5,2.5,15.2,2.8V54.7c-2.4-1.9-4.2-2.9-5.5-3h22.8c-2.5,0.9-4.4,1.9-5.5,3v20.8
		c1.5-0.6,2.5-1.1,3-1.7c-1.3,2.3-2.3,3.8-3,4.7v73.7c2.4,2,4.2,3,5.5,3H-243C-240.4,154.1-238.6,153.1-237.4,152.2z"/>
	<path class="st2" d="M-86,130.5V54.7c-2.4-1.9-4.2-2.9-5.6-3h23c-2.6,0.9-4.5,1.9-5.6,3v75.8c0,3.3,1.2,6.1,3.5,8.4
		c2.4,2.3,5.2,3.5,8.5,3.5c3.3,0,6.1-1.1,8.4-3.5c2.3-2.3,3.5-5.1,3.5-8.4V54.7c-2.3-1.9-4.2-2.9-5.5-3H-33c-2.5,0.9-4.4,1.9-5.5,3
		v75.8c0,6.6-2.3,12.2-7,16.9c-4.7,4.7-10.3,7-16.9,7s-12.2-2.3-16.8-7C-83.7,142.8-86,137.1-86,130.5z"/>
</g>
<path class="st3" d="M-369.9,115.9c0,0-6.9-10.3-9.9-14.7c-0.4-0.5-0.7-1.2-0.8-1.8c-1.6-8.4-3.1-16.8-4.7-25.2
	c-0.1-0.8-0.4-1.6-0.8-2.2c-4.7-7.4-14.6-23-14.6-23l-20.8-9l-5.1-5.6l-11.3-3.7l-13.3-21.2l-17.1-6.7l-11.2,31.4l-30.1,16.5
	l-5.2,19.2l-9.6,7.9c0,0-0.9,13.4-1.3,19.7c-0.2,2.8-0.6,8.4-0.6,8.4l-7-0.8l-5.8,22.5l4.8,32l10.9,5l46.6,29.8l19.7,3.8l32.2-4.5
	l28-7.3l15.2-27.9l12.8-2L-369.9,115.9z M-378.9,126.8c0.4,3.2,1.2,9.9,1.2,9.9l-10.1-9.1c0,0-1.7-24.7-1.9-29.1c0-0.2,0-0.5,0-0.9
	c2.5,1.1,7.7,3.4,7.7,3.4S-379.9,118.4-378.9,126.8z M-412.5,138.8l-2.2,5.6l-7.2-3.1l-3.1-5.3c0,0-5.7,1.6-7.9,2.4
	c-0.2-3.3-0.4-9.7-0.4-9.7l10.8-1l11,1.4c0,0,9.9,10.3,13.5,14.2c0,0.1-7.2-0.5-7.2-0.5L-412.5,138.8z M-406.6,144l-2.3,14.9
	l-6.3-2.8l1.5-10.2c0,0,1.2-3,2-5C-410,141.8-406.6,144-406.6,144z M-415.2,145.7c0,0-0.9,6.2-1.3,9.3c-2.1-1.7-6.3-4.8-6.3-4.8
	l0.8-7.4L-415.2,145.7z M-446.9,144.1c-1.4,0-2.6,0-4.2,0c0-1.6,0.1-6.4,0.1-6.4l-11.4-3.4c0,0,1.8-4.1,2.7-5.7c1.9,1,10,4.3,10,4.3
	s6.5-3.1,9.1-4.1c1.8,2.8,5.5,8.4,5.4,8.5c-1.5-0.9-6.1-3.5-6.1-3.5l-6,4.2C-447.3,138.1-447,142.4-446.9,144.1z M-403.5,114.8
	c4.1-5.4,12.4-16.2,12.4-16.2s0.9,18.3,1.5,27.6C-394.4,122.2-398.9,118.6-403.5,114.8z M-390.8,126.7c0,0-7.9-3.1-11.5-4.6
	c-0.2-0.1-0.5-0.4-0.5-0.6c-0.3-1.6-0.9-5.4-0.9-5.4L-390.8,126.7z M-404.7,114.4l-11.3-8.1l-1.8-26.2l11.8-6.5l14.7,23.1
	L-404.7,114.4z M-434.8,127l-6,0.4l-8.8,4c0,0-9.2-4.1-10.2-4.3c-0.2,0-5.8,0.4-5.8,0.4l-3.3-3.9c0,0,5.1-8,7.6-11.9
	c0.2-0.3,0.7-0.5,1.1-0.5c5.9,0.1,18.3,0.5,18.3,0.5l4.6,6.4l4.2,2.8L-434.8,127z M-434.5,136.6c0,0-3.3-5.3-5-7.9
	c3.1-0.1,4.5-0.1,4.5-0.1L-434.5,136.6z M-461.4,128.6c-1,1.8-2.6,5.4-2.6,5.4l-9.6,1.8l7.5-6.8C-466.1,129-463,128.7-461.4,128.6z
	 M-496.1,110.4l12.4-5.2c0,0,12.8,8.3,12.9,8.4c-1.9,2.4-9.2,11.3-9.2,11.3l-15.4-0.5l-4.2-8.1L-496.1,110.4z M-500.7,115.1
	c-0.7-0.8-1.3-1.4-2-2.2c1.4-0.6,3-1.3,4.3-1.8C-498.4,111.1-500,113.8-500.7,115.1z M-495.1,126.3l14.9,0.3l2.6,2.6
	c0,0-19.1,3.9-28.8,6C-506,134.8-495.1,126.3-495.1,126.3z M-478.5,125.9c0.3-0.5,9.3-11.6,9.3-11.6s4.4-1.8,5.8-2.4
	c-2.2,3.8-7.2,11.1-7.2,11.1l-5.3,5.4C-475.9,128.4-477.5,126.8-478.5,125.9z M-472.6,98c0,0,6.8,7.9,10.1,12
	c-2.4,0.9-4.6,1.8-7,2.7C-470.5,107.8-472.6,98-472.6,98z M-440.3,110.5c6.9-9.6,20.8-29,20.8-29l1.7,24.4l-13.6,7.6
	C-431.4,113.4-437.3,111.5-440.3,110.5z M-425.3,124.1l-10.9-6.9c0,0-2.5-3.5-3.6-5c0.1-0.1,7.8,2.8,7.8,2.8L-425.3,124.1z
	 M-431.8,121.4l7.5,4.8c0,0-6,0.6-9.1,0.8C-432.8,125.1-431.8,121.4-431.8,121.4z M-430.3,114.9l13.1-7.3l11.6,8.2l1,6.3l-6.9,5.2
	l-10.2-1.1L-430.3,114.9z M-419.6,79.1l-22.3,30.9l-18.8-0.6l-14.1-16.2l2.9,17.4l-11.8-7.4l-19.9,8.1c0,0-6.5-3.6-9.1-5.2
	c1.9-3.7,6.1-12.4,6.1-12.4l1.1-11.8l7.8-24l44.5-15.8l21.9,6.8l19.8,9.4l4.6,13.6L-419.6,79.1z M-507.8,93.1c0,0-4.4,0-7.2,0
	c2.9-3.3,8.3-9.5,8.3-9.5L-507.8,93.1z M-508.3,94.6c-0.1,0.4-3.6,7.1-5.3,10.4c-0.1,0.3-0.6,0.6-0.9,0.6c-3.1,0.2-6.2,0.4-9.6,0.7
	c1.4-2.1,2.6-3.8,3.8-5.6c1.2-1.8,4.1-6,4.1-6S-510.7,94.6-508.3,94.6z M-514.2,107.2c1.5,8.7,4.5,26.5,4.5,26.5s-9.5-17.3-14.2-26
	C-520.6,107.5-517.5,107.4-514.2,107.2z M-512.6,108l8.3,5l3.1,3.9l4.3,8.4c0,0-7.5,6.1-11.3,9.3C-509.6,125.7-512.6,108-512.6,108z
	 M-507.8,137.2l14-3.1l-18.9,12.7L-507.8,137.2z M-493.2,135.4l-9.4,20.2l-19.6,5.8l8.9-12.9L-493.2,135.4z M-497.8,148.6
	c2.2-4.8,6.9-14.8,6.9-14.8l15.2-3.5c0,0,4-4,5.6-5.8c1,1.2,2,2.4,3.1,3.6c-2.7,2.5-8.1,7.5-8.1,7.5l-0.5-1.2l-10.8,2.7l-1.2,7.2
	l-4.5,2.1l3.2,9l0.8,9.5c0,0-8.7-6.2-13-9.3C-500,153.2-498.9,150.9-497.8,148.6z M-490.3,147.1c0,0,2.2-0.9,3.3-1.4
	c1.5,2.8,2.9,5.4,4.4,8.2c-1.6,0.2-4.7,0.6-4.7,0.6L-490.3,147.1z M-485.7,145c-0.2-0.3-0.3-0.7-0.4-0.9c0.2-1.8,0.9-5.8,0.9-5.8
	l8.6-2.2c0,0,2.4,9.8,3.1,13.9c0.1,0.4-4.6,5.5-4.6,5.5l-3-1.9C-481,153.6-484.3,147.6-485.7,145z M-474.5,137.5
	c2.3-0.5,10.9-1.9,10.9-1.9s2.1,8.7,2.9,12.5c-3.7,0.7-7.3,1.4-11.1,2.2C-472.6,146-473.7,141.9-474.5,137.5z M-460.5,149.6
	c0.8,14.4,1.9,29.6,2.7,43.8c-0.1,0-9.1-28-13.7-41.6C-467.6,150.9-464.4,150.3-460.5,149.6z M-461.6,136.5l9.1,2.3
	c0,0-0.1,3.8-0.1,5.5c-2.3,0.1-7.3-0.1-7.3-0.1L-461.6,136.5z M-441.4,135.8l6.9,3.8l-0.8,4.5c0,0-7.9,0.2-10.1,0.2
	c-0.1-1.8-0.3-5.4-0.3-5.4L-441.4,135.8z M-434.5,146.1l9.8,4.8l-12.9,18.9L-434.5,146.1z M-433.7,144.6l0.8-4.8l7.1-2.2l2.5,4.4
	l-0.9,7.3L-433.7,144.6z M-410.1,128.2c2.1-1.6,4.1-3.1,6.1-4.7c0.2-0.1,0.6-0.1,0.9-0.1c4.2,1.7,8.5,3.3,12.7,5
	c0.1,0,0.2,0.1,0.4,0.3c-2.1,4.6-4.3,9.2-6.5,14C-401.1,137.8-405.6,133.1-410.1,128.2z M-388.6,129.2c3.6,3.1,7.1,6.2,10.7,9.3
	c-0.4,0.2-0.6,0.4-0.9,0.6c-2.4,1.4-4.9,2.8-7.3,4.1c-0.2,0.1-0.5,0.3-0.8,0.3c-2.7-0.1-5.4-0.1-8.3-0.2
	C-393,138.6-390.8,134-388.6,129.2z M-382.1,99.1c-2.5-1-4.7-1.9-6.9-2.9c-0.2-0.1-0.5-0.6-0.4-0.8c1-6.1,3-19.2,3-19.2
	S-383.5,91.5-382.1,99.1z M-390.7,93.5c0,0.2-0.1,0.4-0.3,0.9c-1.4-2.2-13.8-22-13.8-22l-4.6-13l21.8,13.4
	C-387.6,72.9-389.6,87-390.7,93.5z M-402.1,50.2l13,20l-21-13.2c0,0-11.9-5.6-17.9-8.2c-0.4-0.2-0.8-0.4-1.3-0.6
	c0.3-0.3,7-6.7,7-6.7L-402.1,50.2z M-423.6,40.3c-2.1,1.9-4,3.6-5.8,5.3c0.7-2.7,1.3-6.2,2.2-9.7C-425.9,37.4-424.7,39.1-423.6,40.3
	z M-428.2,35.3c-1,4-2,7.9-3.1,12c-6.6-2.1-13.1-4.1-19.8-6.2c0.4-0.3,12.8-8.9,12.8-8.9S-431.5,34.3-428.2,35.3z M-439.5,31.2
	c-4.4,3-8.6,5.9-13,8.9c-0.1-0.4-3.6-20.2-3.6-20.2l4.2-8.5C-451.9,11.5-443.7,24.6-439.5,31.2z M-453.2,10.4c0,0-2.5,5.1-3.8,7.8
	c-3-4.3-9-12.9-9-12.9L-453.2,10.4z M-467.5,5.8c0.3,0.3,9.7,14.2,9.7,14.2s2.4,13,3.5,19.1c0.1,0.3,0.1,0.6,0.1,1.2
	c-7.8-2-15.5-4-23.3-6C-474.1,24.7-470.8,15.4-467.5,5.8z M-506.2,50.8c8.8-4.8,17.6-9.7,26.4-14.5c0.9-0.5,1.7-0.6,2.8-0.4
	c6.6,1.8,13.1,3.4,19.7,5.1c0.4,0.1,0.8,0.2,1.5,0.4c-0.5,0.2-0.7,0.4-1,0.5c-13.6,4.8-27.1,9.5-40.7,14.3c-0.4,0.1-0.9,0.2-1.2,0.1
	c-2.8-1.6-5.5-3.2-8.4-4.9C-506.8,51.1-506.5,50.9-506.2,50.8z M-508.5,53c0-0.2,0.1-0.3,0.2-0.5c2.2,1.3,9.1,5.5,9.1,5.5
	s-6.7,21.3-6.9,21.9c-0.7-1-6.9-9.8-6.9-9.8S-510,58.5-508.5,53z M-524.3,100.7c0.5-7.1,0.9-14.1,1.4-21.2c0-0.4,0.2-1,0.5-1.3
	c2.8-2.4,5.7-4.7,8.6-7.1c2.4,3.4,4.7,6.7,7.2,10.2c-2.8,3-10.2,11.9-10.2,11.9l-7.6,11.4C-524.5,104.6-524.4,101.7-524.3,100.7z
	 M-525.4,115.9c0.1-2.1,0.5-6.8,0.5-6.8s4.3,8,6.4,11.8c2.8,5.2,8.8,16.1,8.8,16.1s-3.2,6.8-4.7,9.6c-1.6-1.2-12.1-9.4-12.1-9.4
	S-525.8,122.7-525.4,115.9z M-535.3,141c-0.7-4.1-2.1-13.4-2.1-13.4l5.2-21l5.8,0.8c0,0-0.2,4.2-0.3,6.2c-0.5,7.9-0.9,15.7-1.4,23.6
	c0,0.8-4.8,18.3-4.9,18.3C-533.8,150.7-534.6,145.8-535.3,141z M-524.6,161.9l-7.6-3.6c0,0,4.9-19.5,5-19.7
	c3.9,3.1,12.1,9.4,12.1,9.4L-524.6,161.9z M-522.5,163.2c1.7-0.5,3.2-1,4.7-1.4c5-1.5,15.9-4.6,15.9-4.6l14.2,9.9l9.9,24.9
	C-477.8,192.1-507.5,172.9-522.5,163.2z M-486.3,166.6c0,0-0.8-8.4-0.9-10.5c1.8-0.2,5.8-0.7,5.8-0.7l2.6,1.6l1.8,33L-486.3,166.6z
	 M-475.1,193.1l-2.1-36l4.1-5.1c0,0,10.3,29.8,15.3,44.6C-459.7,196.3-475.1,193.1-475.1,193.1z M-426.7,192.6
	c0,0-19.7,2.8-29.3,4.1c-0.1,0-0.3,0-0.6,0c-0.9-16.8-1.9-33.6-2.8-50.8c7.9,0,15.7,0,23.6,0c-1.2,9.2-3.5,28-3.5,28
	s10.7-14.9,16-22.4c2,1.6,6.1,4.9,6.1,4.9L-426.7,192.6z M-416.3,157.1c2.3,1.1,4.5,2.1,6.8,3.2c-4.9,9.6-15,29.6-15.1,29.6
	C-421.9,179.5-419,167.7-416.3,157.1z M-423.9,191.9c5.3-10.3,10.4-20.4,15.7-30.8c3.3,8,6.7,15.9,10,23.9
	C-406.7,187.3-415.2,189.5-423.9,191.9z M-397.4,184.1c0,0-3.4-7.6-4.9-11.3c-1.7-4.1-5.3-12.9-5.3-12.9l2.6-15.6l18.4,1.1l3.4,12.5
	L-397.4,184.1z M-381.7,156.7c-0.1-0.2-0.2-0.4-0.3-0.6c-1-3.5-3.2-11.4-3.2-11.4s5.7-3.3,8.5-4.9c2,5.2,3.9,10.2,5.9,15.4
	C-374.4,155.7-378,156.2-381.7,156.7z M-375.8,138.5l-4.5-35.4l8.9,13.3l1.1,36.7L-375.8,138.5z"/>
</svg>
